<?xml version="1.0" encoding="utf-8"?>
<!-- Generator: Adobe Illustrator 23.0.1, SVG Export Plug-In . SVG Version: 6.00 Build 0)  -->
<svg version="1.1" id="Layer_1" xmlns="http://www.w3.org/2000/svg" xmlns:xlink="http://www.w3.org/1999/xlink" x="0px" y="0px"
	 width="850pt"
        height="850pt"
        version="1.0"
        viewBox="250 1720 850 850" style="enable-background:new 0 0 1125 2436;" xml:space="preserve">
<style type="text/css">
	.st0{fill:none;stroke:#000000;stroke-miterlimit:10;}
</style>
<g
          className="svg-container"
          transform="translate(0 457) scale(3.35 3.35)"
          fill="none"
        >
<path ref={outlineLogoRef} d="M262.33,1457.64c-3.85-16.67-1.85-32.69,5.14-48.23c25.27-56.16,50.48-112.35,75.73-168.53
	c5.66-12.6,13.01-24.04,23.94-32.75c18.9-15.06,39.95-16.47,62.33-9.6c30.2,9.27,50.42,36.12,49.76,66.67
	c-0.1,4.79-1.2,9.55-1.84,14.33c0.11,6.17-0.86,12.05-3.7,17.67c-3.19,6.3-3,6.37,3.19,10.04c0.54,0.32,0.97,0.89,1.5,1.3l-0.09,0
	c1.47,1.2,3.2,0.55,4.79,0.56c9.5,0.07,19.01-0.33,28.48,0.17c6.12,0.32,11.56-1.29,17.06-3.35c2.44-0.91,2.71-2.71,2.12-4.85
	c-0.81-2.9-2.38-5.5-3.49-8.27c-7.95-19.77-16.29-39.38-24.5-59.04c-11.93-28.56-23.64-57.21-35.84-85.66
	c-6.62-15.44-12.79-31.09-19.15-46.64c-2.01-4.92-4.58-9.61-6.03-14.79c-0.94-3.33-1.78-6.62-1.58-10.11
	c-0.4-7.95-2.45-15.77-1.4-23.85c3.82-29.33,25.09-52.11,54.77-59.05c20.29-4.75,39.38-3.1,56.71,9.28
	c10.75,7.68,17.83,18.33,22.9,30.33c10.5,24.85,20.87,49.76,31.27,74.66c31.19,74.68,62.38,149.36,93.56,224.05
	c10.84,25.97,21.39,52.07,32.56,77.9c6.7,15.48,8.92,31.22,5.77,47.76c1.12,9.22-3.53,16.6-8.74,23.14
	c-9.58,12.04-21.61,20.95-36.54,25.94c-12.36,4.13-24.74,6.16-37.74,4.59c-18.88-2.28-33.24-11.81-44.19-26.94
	c-7.49-10.35-11.71-22.37-17-33.84c-0.77-1.66-1.51-3.34-2.2-5.03c-1.87-4.58-5.19-6.42-10.15-6.42
	c-54.13,0.06-108.26,0.06-162.39,0.01c-4.94,0-8.08,1.98-10.23,6.4c-4.73,9.73-8.75,19.78-14.05,29.25
	c-9.01,16.11-21.37,28.42-39.08,34.6c-6.82,2.38-14.04,2.92-21.19,2.62c-15.38-0.65-29.9-4.56-43.02-12.84
	c-12.75-8.05-22.53-18.58-27.11-33.31C261.8,1463.09,261.63,1460.39,262.33,1457.64z"/>
</svg>
